<svg width="233" height="233" viewBox="0 0 233 233" fill="none" xmlns="http://www.w3.org/2000/svg">
<path d="M40 132.759C54.2949 127.949 70.0868 121.821 82 115C105.898 101.317 137.5 71.5 137.5 71.5C137.5 71.5 165.223 83.6743 184 88C201.819 92.1051 230.5 93.5 230.5 93.5C230.5 93.5 231.111 82.5028 230.5 75.5C228.532 52.9589 225.379 37.6192 209.5 21.5C199.301 11.1464 192.026 2.01832 177.5 2.5C165.538 2.89667 150.5 17 150.5 17C150.5 17 135.16 9.29677 124.5 7.5C101.523 3.62714 85.9339 8.64473 66.5 21.5C42.8673 37.1327 28 83 28 83L3.5 143.5C3.5 143.5 10.166 141.867 20.0093 139.008M40 132.759C40 132.759 42.3101 144.465 47.0462 158.5M40 132.759C32.7092 135.212 25.8079 137.323 20.0093 139.008M209.5 93.5C209.5 93.5 209.692 95.601 209.915 99M210.046 132.759C209.899 134.401 209.719 135.99 209.5 137.5C205.586 164.485 202.57 182.533 184 202.5C169.632 217.949 158.383 226.999 137.5 230C107.07 234.373 87.0988 218.821 66.5 196C57.8798 186.45 51.4257 171.479 47.0462 158.5M210.046 132.759C210.046 132.759 216.585 130.62 222.5 125C227.604 120.151 229.998 114.879 228.5 108C227.116 101.646 223.465 98.0897 217.5 95.5C211.917 93.0761 209.915 99 209.915 99M210.046 132.759C211.088 121.071 210.421 106.703 209.915 99M47.0462 158.5C47.0462 158.5 43.1593 162.176 40 163C32.8054 164.877 27.6373 159.678 23.5 153.5C20.2607 148.663 20.0093 139.008 20.0093 139.008M124.5 202.5C124.5 202.5 151 194.5 155 191.5C159 188.5 159.5 186 159.5 186" stroke="black" stroke-width="4"/>
<path d="M112.692 142.286C114.911 155.245 104.846 167.024 91.6438 168.767C79.159 170.416 67.8271 163.18 64.8068 151.113C62.1345 140.437 66.172 130.591 75.8573 125.151C83.7155 120.738 90.9206 121.167 99.0108 125.151C106.735 128.956 111.254 133.886 112.692 142.286ZM112.692 142.286C112.692 142.286 120.64 133.53 127.5 131.5C133.304 129.783 143 131.5 143 131.5" stroke="black" stroke-width="4"/>
<path d="M143.807 134.113C141.135 123.437 145.172 113.591 154.857 108.151C162.715 103.738 169.921 104.167 178.011 108.151C185.735 111.956 190.254 116.886 191.692 125.286C193.911 138.245 183.846 150.024 170.644 151.767C158.159 153.416 146.827 146.18 143.807 134.113Z" stroke="black" stroke-width="4"/>
<path d="M76 149.5C76 149.5 80.7335 143.774 85 142.5C88.3678 141.494 94 142.5 94 142.5" stroke="black" stroke-width="4"/>
<path d="M160 132.5C160 132.5 163.428 127.075 167 126C170.814 124.853 177 128 177 128" stroke="black" stroke-width="4"/>
</svg>
