<svg width="234" height="233" viewBox="0 0 234 233" fill="none" xmlns="http://www.w3.org/2000/svg">
<path d="M40.5 132.277C54.7949 127.467 70.5868 121.339 82.5 114.518C106.398 100.835 138 71.0182 138 71.0182C138 71.0182 165.723 83.1926 184.5 87.5182C202.319 91.6233 231 93.0182 231 93.0182C231 93.0182 231.611 82.021 231 75.0182C229.032 52.4772 225.879 37.1374 210 21.0182C199.801 10.6646 192.526 1.53656 178 2.01824C166.038 2.41491 151 16.5182 151 16.5182C151 16.5182 135.66 8.81501 125 7.01824C102.023 3.14538 86.4339 8.16297 67 21.0182C43.3673 36.651 28.5 82.5182 28.5 82.5182L4 143.018C4 143.018 10.666 141.385 20.5093 138.526M40.5 132.277C40.5 132.277 42.8101 143.983 47.5462 158.018M40.5 132.277C33.2092 134.731 26.3079 136.841 20.5093 138.526M210 93.0182C210 93.0182 210.192 95.1193 210.415 98.5182M210.546 132.277C210.399 133.919 210.219 135.508 210 137.018C206.086 164.003 203.07 182.051 184.5 202.018C170.132 217.467 158.883 226.517 138 229.518C107.57 233.891 87.5988 218.339 67 195.518C58.3798 185.968 51.9257 170.997 47.5462 158.018M210.546 132.277C210.546 132.277 217.085 130.138 223 124.518C228.104 119.669 230.498 114.397 229 107.518C227.616 101.165 223.965 97.608 218 95.0182C212.417 92.5943 210.415 98.5182 210.415 98.5182M210.546 132.277C211.588 120.589 210.921 106.221 210.415 98.5182M47.5462 158.018C47.5462 158.018 43.6593 161.694 40.5 162.518C33.3054 164.395 28.1373 159.196 24 153.018C20.7607 148.181 20.5093 138.526 20.5093 138.526M123 192.5C123 192.5 131.202 197.201 137 197.5C144.645 197.895 149.799 196.128 155.5 191.018C160.194 186.811 163.5 177 163.5 177" stroke="black" stroke-width="4"/>
<path d="M113.192 141.804C115.411 154.764 105.346 166.543 92.1438 168.286C79.659 169.934 68.3271 162.698 65.3068 150.631C62.6345 139.956 66.672 130.11 76.3573 124.67C84.2155 120.256 91.4206 120.685 99.5108 124.67C107.235 128.474 111.754 133.405 113.192 141.804ZM113.192 141.804C113.192 141.804 121.14 133.048 128 131.018C133.804 129.301 143.5 131.018 143.5 131.018" stroke="black" stroke-width="4"/>
<path d="M144.307 133.631C141.635 122.956 145.672 113.11 155.357 107.67C163.215 103.256 170.421 103.685 178.511 107.67C186.235 111.474 190.754 116.405 192.192 124.804C194.411 137.764 184.346 149.543 171.144 151.286C158.659 152.934 147.327 145.698 144.307 133.631Z" stroke="black" stroke-width="4"/>
<path d="M76.5 149.018C76.5 149.018 81.2335 143.292 85.5 142.018C88.8678 141.013 94.5 142.018 94.5 142.018" stroke="black" stroke-width="4"/>
<path d="M160.5 132.018C160.5 132.018 163.928 126.593 167.5 125.518C171.314 124.371 177.5 127.518 177.5 127.518" stroke="black" stroke-width="4"/>
</svg>
